name C:\Users\Nicos\Desktop\Gil_twoSteps\Study2\ExperimentalData\IK_Splined\twoSteps_IK_BSplines_225_meshInts_study2_p02_s_01_lowIK_modROI.mot
datacolumns 38
datarows 15
range 0.54628088 0.55278222
endheader
                time	         pelvis_tilt	         pelvis_list	     pelvis_rotation	           pelvis_tx	           pelvis_ty	           pelvis_tz	       hip_flexion_r	     hip_adduction_r	      hip_rotation_r	        knee_angle_r	       ankle_angle_r	    subtalar_angle_r	         mtp_angle_r	       hip_flexion_l	     hip_adduction_l	      hip_rotation_l	        knee_angle_l	       ankle_angle_l	    subtalar_angle_l	         mtp_angle_l	    lumbar_extension	      lumbar_bending	     lumbar_rotation	          arm_flex_r	           arm_add_r	           arm_rot_r	        elbow_flex_r	           pro_sup_r	        wrist_flex_r	         wrist_dev_r	          arm_flex_l	           arm_add_l	           arm_rot_l	        elbow_flex_l	           pro_sup_l	        wrist_flex_l	         wrist_dev_l	
          0.54628088	        -23.03431450	         12.54813741	         -7.13222575	         -0.28788368	          0.87261731	          0.35080929	        -11.55075893	        -16.54304697	          0.52911049	        -25.56078645	        -42.88250420	        -15.85489157	         -5.94861084	         88.19316022	          0.79654164	        -11.17695973	        -86.00308226	          6.56292144	        -14.40923169	          7.19635911	        -15.01304837	        -23.75111384	         -7.06000206	         55.67523088	        -13.03042830	         24.69236303	        141.40527663	         60.39617644	        -18.62668202	         10.25317753	        -76.07740591	          4.63225684	        -44.95088460	         52.76917841	         63.39059108	          1.36218329	         25.46389416	
          0.54696889	        -23.01296140	         12.42385437	         -6.99273417	         -0.28404456	          0.87309043	          0.35089665	        -11.48682569	        -16.32307280	          0.35713778	        -26.00525750	        -42.83722679	        -15.95809213	         -6.02086207	         87.97783417	          0.82763476	        -11.11690356	        -85.70415923	          6.56724417	        -14.38068187	          7.19140462	        -15.13061982	        -23.68394552	         -7.15124976	         55.08117425	        -13.23059394	         24.60926262	        141.58204089	         60.34568512	        -18.66134841	         10.26691745	        -75.81168522	          4.60852871	        -44.96592092	         52.83609566	         63.38539944	          1.37418256	         25.45351534	
          0.54696889	        -23.01296140	         12.42385437	         -6.99273417	         -0.28404456	          0.87309043	          0.35089665	        -11.48682569	        -16.32307280	          0.35713778	        -26.00525750	        -42.83722679	        -15.95809213	         -6.02086207	         87.97783417	          0.82763476	        -11.11690356	        -85.70415923	          6.56724417	        -14.38068187	          7.19140462	        -15.13061982	        -23.68394552	         -7.15124976	         55.08117425	        -13.23059394	         24.60926262	        141.58204089	         60.34568512	        -18.66134841	         10.26691745	        -75.81168522	          4.60852871	        -44.96592092	         52.83609566	         63.38539944	          1.37418256	         25.45351534	
          0.54726934	        -23.00363648	         12.36957989	         -6.93181809	         -0.28236801	          0.87329704	          0.35093479	        -11.45890600	        -16.22700993	          0.28203718	        -26.19935831	        -42.81745412	        -16.00315989	         -6.05241423	         87.88380114	          0.84121314	        -11.09067699	        -85.57361934	          6.56913191	        -14.36821415	          7.18924099	        -15.18196336	        -23.65461307	         -7.19109769	         54.82174931	        -13.31800641	         24.57297262	        141.65923396	         60.32363553	        -18.67648724	         10.27291768	        -75.69564481	          4.59816662	        -44.97248729	         52.86531847	         63.38313225	          1.37942265	         25.44898291	
          0.54821866	        -22.97185844	         12.19781645	         -6.73971800	         -0.27707029	          0.87395145	          0.35105688	        -11.36878290	        -15.92339060	          0.04597775	        -26.81869825	        -42.74770632	        -16.13874960	         -6.14050948	         87.58188740	          0.88440839	        -11.00781510	        -85.16253276	          6.57403810	        -14.32759446	          7.18333607	        -15.34832413	        -23.56151220	         -7.31428453	         53.99489449	        -13.59449394	         24.44999865	        141.89869232	         60.25411253	        -18.72471004	         10.29246956	        -75.32581446	          4.56020704	        -44.99029538	         52.96111515	         63.37868151	          1.39569101	         25.43434846	
          0.54890667	        -22.94187069	         12.07249571	         -6.60160574	         -0.27322928	          0.87443054	          0.35115004	        -11.29773239	        -15.70304387	         -0.12141562	        -27.28577346	        -42.67529835	        -16.21656592	         -6.16950866	         87.34862997	          0.91659466	        -10.94777148	        -84.86870516	          6.57441373	        -14.29446921	          7.18185492	        -15.48132218	        -23.49276888	         -7.39540107	         53.37406648	        -13.79577777	         24.33589575	        142.05889589	         60.20416097	        -18.76083202	         10.30842339	        -75.04819599	          4.51701138	        -44.99437030	         53.04095403	         63.38360725	          1.40661548	         25.42279924	
          0.54890667	        -22.94187069	         12.07249571	         -6.60160574	         -0.27322928	          0.87443054	          0.35115004	        -11.29773239	        -15.70304387	         -0.12141562	        -27.28577346	        -42.67529835	        -16.21656592	         -6.16950866	         87.34862997	          0.91659466	        -10.94777148	        -84.86870516	          6.57441373	        -14.29446921	          7.18185492	        -15.48132218	        -23.49276888	         -7.39540107	         53.37406648	        -13.79577777	         24.33589575	        142.05889589	         60.20416097	        -18.76083202	         10.30842339	        -75.04819599	          4.51701138	        -44.99437030	         53.04095403	         63.38360725	          1.40661548	         25.42279924	
          0.54920712	        -22.92877502	         12.01776806	         -6.54129202	         -0.27155191	          0.87463975	          0.35119072	        -11.26670459	        -15.60681831	         -0.19451642	        -27.48974552	        -42.64367774	        -16.25054836	         -6.18217262	         87.24676629	          0.93065042	        -10.92155039	        -84.74039045	          6.57457776	        -14.28000339	          7.18120810	        -15.53940252	        -23.46274862	         -7.43082472	         53.10295046	        -13.88367856	         24.28606694	        142.12885690	         60.18234709	        -18.77660651	         10.31539044	        -74.92695982	          4.49814781	        -44.99614982	         53.07581972	         63.38575832	          1.41138620	         25.41775569	
          0.55015643	        -22.88634005	         11.84487747	         -6.35096526	         -0.26625174	          0.87530161	          0.35131992	        -11.16782728	        -15.30301329	         -0.42491671	        -28.13668429	        -42.54138114	        -16.35479472	         -6.21797262	         86.92271697	          0.97515625	        -10.83878509	        -84.33563656	          6.57459928	        -14.23389975	          7.17956142	        -15.72479506	        -23.36778705	         -7.54125686	         52.24285103	        -14.16130656	         24.12420341	        142.34775738	         60.11340294	        -18.82682729	         10.33777712	        -74.54236717	          4.43592074	        -45.00021412	         53.18762950	         63.39376972	          1.42640088	         25.40167191	
          0.55084444	        -22.84808612	         11.71976332	         -6.21472794	         -0.26240786	          0.87578705	          0.35141816	        -11.09019723	        -15.08445178	         -0.58786914	        -28.62306036	        -42.45031253	        -16.40820062	         -6.21405559	         86.67225766	          1.00808751	        -10.77938717	        -84.04702985	          6.57109360	        -14.19766841	          7.18118207	        -15.87250026	        -23.29818578	         -7.61071519	         51.59480623	        -14.36178870	         23.97552893	        142.49118030	         60.06328588	        -18.86591688	         10.35665026	        -74.25274912	          4.37220878	        -44.99211426	         53.28034774	         63.40818749	          1.43686544	         25.38896467	
          0.55084444	        -22.84808612	         11.71976332	         -6.21472794	         -0.26240786	          0.87578705	          0.35141816	        -11.09019723	        -15.08445178	         -0.58786914	        -28.62306036	        -42.45031253	        -16.40820062	         -6.21405559	         86.67225766	          1.00808751	        -10.77938717	        -84.04702985	          6.57109360	        -14.19766841	          7.18118207	        -15.87250026	        -23.29818578	         -7.61071519	         51.59480623	        -14.36178870	         23.97552893	        142.49118030	         60.06328588	        -18.86591688	         10.35665026	        -74.25274912	          4.37220878	        -44.99211426	         53.28034774	         63.40818749	          1.43686544	         25.38896467	
          0.55114490	        -22.83138061	         11.66512588	         -6.15523301	         -0.26072924	          0.87599905	          0.35146106	        -11.05629614	        -14.98900582	         -0.65903058	        -28.83546112	        -42.41054280	        -16.43152302	         -6.21234501	         86.56288191	          1.02246862	        -10.75344806	        -83.92099510	          6.56956266	        -14.18184616	          7.18188980	        -15.93700322	        -23.26779085	         -7.64104769	         51.31180462	        -14.44933939	         23.91060269	        142.55381320	         60.04139973	        -18.88298733	         10.36489218	        -74.12627271	          4.34438572	        -44.98857704	         53.32083785	         63.41448374	          1.44143532	         25.38341541	
          0.55209421	        -22.77859800	         11.49249390	         -5.96725331	         -0.25542547	          0.87666886	          0.35159662	        -10.94918252	        -14.68743554	         -0.88387167	        -29.50656082	        -42.28488669	        -16.50521227	         -6.20694031	         86.21729918	          1.06790703	        -10.67149105	        -83.52277674	          6.56472554	        -14.13185430	          7.18412596	        -16.14080624	        -23.17175529	         -7.73688601	         50.41763505	        -14.72596383	         23.70546225	        142.75170756	         59.97224841	        -18.93692300	         10.39093327	        -73.72665891	          4.25647622	        -44.97740088	         53.44877010	         63.43437732	          1.45587429	         25.36588201	
          0.55278222	        -22.73292634	         11.36886446	         -5.83307803	         -0.25157806	          0.87716000	          0.35169870	        -10.86512152	        -14.47278256	         -1.04312236	        -30.00938617	        -42.18277587	        -16.53645788	         -6.17876455	         85.95096721	          1.10149545	        -10.61339804	        -83.23932202	          6.55738818	        -14.09414651	          7.18841123	        -16.30187694	        -23.10198334	         -7.79379467	         49.74249374	        -14.92359170	         23.52006753	        142.87781016	         59.92156562	        -18.98017313	         10.41329825	        -73.42517580	          4.17174622	        -44.95563229	         53.55367519	         63.45767658	          1.46638137	         25.35207604	
          0.55278222	        -22.73292634	         11.36886446	         -5.83307803	         -0.25157806	          0.87716000	          0.35169870	        -10.86512152	        -14.47278256	         -1.04312236	        -30.00938617	        -42.18277587	        -16.53645788	         -6.17876455	         85.95096721	          1.10149545	        -10.61339804	        -83.23932202	          6.55738818	        -14.09414651	          7.18841123	        -16.30187694	        -23.10198334	         -7.79379467	         49.74249374	        -14.92359170	         23.52006753	        142.87781016	         59.92156562	        -18.98017313	         10.41329825	        -73.42517580	          4.17174622	        -44.95563229	         53.55367519	         63.45767658	          1.46638137	         25.35207604	
